<svg  width="24" height="24" viewBox="0 0 24 24" fill="none" xmlns="http://www.w3.org/2000/svg">
<path d="M16.729 4.27135C16.542 4.08335 16.288 3.97732 16.0228 3.97657C15.7577 3.97582 15.5031 4.08041 15.315 4.26735C15.2157 4.36841 15.139 4.48942 15.09 4.62235C14.258 6.35835 13.342 7.33735 12.186 7.91535C10.889 8.55535 9.4 9.00035 7 9.00035C6.8027 9.0018 6.61015 9.06101 6.44612 9.17066C6.28209 9.28031 6.15377 9.4356 6.077 9.61735C6.0013 9.80013 5.9815 10.0013 6.02013 10.1953C6.05876 10.3893 6.15407 10.5675 6.294 10.7074L9.537 13.9504L5 20.0004L11.05 15.4634L14.292 18.7054C14.3853 18.7985 14.4961 18.8722 14.618 18.9224C14.7413 18.9737 14.8687 18.9997 15 19.0004C15.197 19.0014 15.26 18.9734 15.382 18.9224C15.5646 18.8469 15.7207 18.7191 15.8307 18.555C15.9406 18.3909 15.9996 18.1979 16 18.0004C16 15.6004 16.444 14.1114 17.083 12.8344C17.66 11.6784 18.639 10.7624 20.376 9.93036C20.5086 9.88122 20.6292 9.80454 20.73 9.70535C20.9169 9.5173 21.0215 9.26269 21.0208 8.99753C21.02 8.73236 20.914 8.47835 20.726 8.29136L16.729 4.27135Z" fill="#297AD6"/>
</svg>
