<svg width="24"  height="24" viewBox="0 0 24 24" fill="none" xmlns="http://www.w3.org/2000/svg">
<path d="M21.436 7.58686L17.438 3.56686C16.686 2.81086 15.375 2.80286 14.608 3.56086C14.412 3.75686 14.258 3.99686 14.19 4.18986C13.537 5.55186 12.836 6.40486 11.936 6.91686L11.719 7.02186C10.751 7.50686 9.434 8.00086 7 8.00086C6.734 8.00152 6.47867 8.05219 6.234 8.15286C5.74502 8.35815 5.35639 8.7475 5.152 9.23686C4.95275 9.72566 4.95275 10.273 5.152 10.7619C5.256 11.0109 5.402 11.2329 5.587 11.4129L8.822 14.6479L5 20.0009L10.352 16.1789L13.579 19.4059C13.765 19.5949 13.985 19.7449 14.235 19.8469C14.4773 19.949 14.7376 20.0017 15.0005 20.0017C15.2634 20.0017 15.5237 19.949 15.766 19.8469C16.009 19.7485 16.2297 19.6024 16.4152 19.4173C16.6007 19.2321 16.7472 19.0116 16.846 18.7689C16.949 18.5269 17.001 18.2619 17.001 18.0009C17.001 15.5649 17.495 14.2489 17.979 13.2799C18.475 12.2879 19.348 11.5319 20.733 10.8659C21.005 10.7619 21.242 10.6095 21.444 10.4089C21.8148 10.0324 22.022 9.52467 22.0205 8.99621C22.019 8.46775 21.809 7.96125 21.436 7.58686ZM16.188 12.3879C15.369 14.0309 15 15.7579 14.993 17.9919L7 10.0009C9.139 10.0009 10.814 9.66586 12.396 8.91686L12.631 8.81186C14.03 8.11286 15.099 6.91886 16.019 4.97786L19.943 9.02886C18.08 9.92186 16.887 10.9889 16.188 12.3879Z" fill="#475263"/>
</svg>
